<svg width="23" height="22" viewBox="0 0 23 22" fill="none" xmlns="http://www.w3.org/2000/svg">
<path d="M8.42853 11C8.42853 11.2405 8.51584 11.4466 8.70389 11.6253L13.929 16.8616C14.0768 17.0127 14.2648 17.0952 14.4865 17.0952C14.9297 17.0952 15.2857 16.7379 15.2857 16.2775C15.2857 16.0507 15.1916 15.8514 15.0439 15.6934L10.3359 11L15.0439 6.30656C15.1916 6.14851 15.2857 5.94236 15.2857 5.72246C15.2857 5.26205 14.9297 4.90472 14.4865 4.90472C14.2648 4.90472 14.0768 4.98719 13.929 5.13836L8.70389 10.3678C8.51584 10.5533 8.42853 10.7595 8.42853 11Z" fill="#232323"/>
</svg>
