<svg width="20" height="20" viewBox="0 0 20 20" fill="none" xmlns="http://www.w3.org/2000/svg">
<path d="M14.9532 15.3153C15.1541 15.5099 15.4618 15.5225 15.6627 15.3153C15.8698 15.1019 15.8573 14.8005 15.6627 14.6059L5.01533 3.96485C4.82071 3.77024 4.49426 3.76396 4.29965 3.96485C4.11131 4.15319 4.11131 4.47964 4.29965 4.66798L14.9532 15.3153ZM10.0063 4.32269C8.90763 4.32269 7.91572 4.51103 6.99287 4.81865L8.00989 5.83567C8.64396 5.65989 9.29686 5.55316 10.0063 5.55316C13.999 5.55316 17.1693 9.02484 17.1693 9.75936C17.1693 10.2553 16.1649 11.5297 14.564 12.5342L15.5057 13.4822C17.477 12.1889 18.6258 10.5001 18.6258 9.75936C18.6258 8.47239 15.1604 4.32269 10.0063 4.32269ZM10.0063 15.2023C11.1614 15.2023 12.2224 15.0014 13.1829 14.6687L12.1659 13.6517C11.4878 13.8525 10.7722 13.9718 10.0063 13.9718C6.00096 13.9718 2.83062 10.6383 2.83062 9.75936C2.83062 9.33874 3.89158 7.98899 5.5929 6.9343L4.63238 5.97378C2.58578 7.27959 1.37415 9.01229 1.37415 9.75936C1.37415 11.0463 4.91488 15.2023 10.0063 15.2023ZM13.1264 10.9584C13.2896 10.5943 13.3775 10.18 13.3775 9.75936C13.3775 7.88226 11.8771 6.3944 10.0063 6.3944C9.57309 6.3944 9.1713 6.48229 8.8009 6.63296L13.1264 10.9584ZM10.0063 13.1306C10.4834 13.1306 10.9354 13.0176 11.3435 12.823L6.93009 8.40961C6.7292 8.81767 6.62247 9.27596 6.62247 9.76563C6.62875 11.5925 8.12289 13.1306 10.0063 13.1306Z" fill="black" fill-opacity="0.5"/>
</svg>
