<svg width="80" height="80" viewBox="0 0 80 80" fill="none" xmlns="http://www.w3.org/2000/svg">
<g filter="url(#filter0_b_472_1801)">
<circle cx="40" cy="40" r="40" fill="#8F8F8F" fill-opacity="0.26"/>
</g>
<path d="M39.9922 27.9196C41.074 27.9196 41.9677 27.026 41.9677 25.9598C41.9677 24.878 41.074 24 39.9922 24C38.9103 24 38.0323 24.8623 38.0323 25.9598C38.0323 27.026 38.9417 27.9196 39.9922 27.9196ZM48.537 31.463C49.2896 32.2156 50.5595 32.2156 51.3121 31.463C52.096 30.6948 52.096 29.4561 51.3121 28.6879C50.5282 27.904 49.3209 27.904 48.537 28.6879C47.7844 29.4405 47.7844 30.7104 48.537 31.463ZM28.6722 31.4787C29.4248 32.2313 30.6948 32.2313 31.4473 31.4787C32.2313 30.6791 32.2313 29.4875 31.4473 28.7036C30.6791 27.9196 29.4405 27.9196 28.6722 28.7036C27.9196 29.4561 27.9196 30.7104 28.6722 31.4787ZM39.9922 48.2391C44.4919 48.2391 48.2077 44.5233 48.2077 40.0235C48.2077 35.5394 44.4919 31.8236 39.9922 31.8236C35.5081 31.8236 31.7923 35.5394 31.7923 40.0235C31.7923 44.5233 35.5081 48.2391 39.9922 48.2391ZM25.9598 41.9833C27.026 41.9833 27.9196 41.074 27.9196 40.0235C27.9196 38.926 27.0573 38.048 25.9598 38.048C24.878 38.048 24 38.9417 24 40.0235C24 41.0897 24.8937 41.9833 25.9598 41.9833ZM54.0402 42.0617C55.1377 42.0617 56 41.1994 56 40.1019C56 39.0514 55.1063 38.1421 54.0402 38.1421C52.9584 38.1421 52.0804 39.0358 52.0804 40.1019C52.0804 41.1837 52.9584 42.0617 54.0402 42.0617ZM28.6879 51.3121C29.4561 52.096 30.6948 52.096 31.463 51.3121C32.2156 50.5595 32.2156 49.3052 31.463 48.537C30.7104 47.7844 29.4405 47.7844 28.6879 48.537C27.904 49.3209 27.904 50.5438 28.6879 51.3121ZM48.4586 51.3905C49.2582 52.1587 50.4498 52.1587 51.2494 51.3905C52.002 50.6379 52.002 49.368 51.2494 48.6154C50.4655 47.8471 49.2268 47.8471 48.4586 48.6154C47.6903 49.3836 47.6903 50.6222 48.4586 51.3905ZM39.9922 56C41.074 56 41.9677 55.122 41.9677 54.0402C41.9677 52.974 41.074 52.0804 39.9922 52.0804C38.9417 52.0804 38.0323 52.974 38.0323 54.0402C38.0323 55.1377 38.9103 56 39.9922 56Z" fill="white"/>
<defs>
<filter id="filter0_b_472_1801" x="-34" y="-34" width="148" height="148" filterUnits="userSpaceOnUse" color-interpolation-filters="sRGB">
<feFlood flood-opacity="0" result="BackgroundImageFix"/>
<feGaussianBlur in="BackgroundImageFix" stdDeviation="17"/>
<feComposite in2="SourceAlpha" operator="in" result="effect1_backgroundBlur_472_1801"/>
<feBlend mode="normal" in="SourceGraphic" in2="effect1_backgroundBlur_472_1801" result="shape"/>
</filter>
</defs>
</svg>
