<svg width="363" height="416" viewBox="0 0 363 416" fill="none" xmlns="http://www.w3.org/2000/svg">
<mask id="mask0_17_573" style="mask-type:alpha" maskUnits="userSpaceOnUse" x="50" y="97" width="655" height="559">
<path d="M112.066 516.668C154.495 490.215 169.668 514.552 212.097 488.1C254.526 461.647 239.353 437.31 281.769 410.865C324.186 384.421 339.372 408.75 381.8 382.298C424.229 355.845 409.056 331.508 451.485 305.056C493.914 278.603 509.087 302.94 551.528 276.48C593.97 250.02 578.784 225.691 621.213 199.238" stroke="#4A4A4A" stroke-opacity="0.35" stroke-width="0.634507" stroke-miterlimit="10"/>
<path d="M98.7957 490.364C141.225 463.912 156.398 488.249 198.827 461.797C241.256 435.344 226.083 411.007 268.499 384.562C310.916 358.117 326.101 382.447 368.53 355.994C410.959 329.542 395.786 305.205 438.215 278.752C480.644 252.3 495.817 276.637 538.258 250.177C580.7 223.717 565.514 199.387 607.943 172.935" stroke="#4A4A4A" stroke-opacity="0.35" stroke-width="0.634507" stroke-miterlimit="10"/>
<path d="M51.0168 415.352C93.4458 388.9 108.619 413.237 151.048 386.785C193.477 360.332 178.304 335.995 220.72 309.55C263.137 283.105 278.322 307.435 320.751 280.982C363.18 254.53 348.007 230.193 390.436 203.74C432.865 177.288 448.038 201.625 490.479 175.165C532.921 148.705 517.735 124.375 560.164 97.9229" stroke="#4A4A4A" stroke-opacity="0.35" stroke-width="0.634507" stroke-miterlimit="10"/>
<path d="M93.1985 477.067C135.627 450.615 150.801 474.952 193.229 448.5C235.658 422.047 220.485 397.71 262.902 371.265C305.319 344.82 320.504 369.15 362.933 342.698C405.362 316.245 390.189 291.908 432.618 265.455C475.047 239.003 490.22 263.34 532.661 236.88C575.102 210.42 559.917 186.09 602.346 159.638" stroke="#4A4A4A" stroke-opacity="0.35" stroke-width="0.634507" stroke-miterlimit="10"/>
<path d="M74.8686 450.591C117.298 424.139 132.471 448.476 174.9 422.023C217.329 395.571 202.155 371.234 244.572 344.789C286.989 318.344 302.174 342.674 344.603 316.221C387.032 289.769 371.859 265.432 414.288 238.979C456.717 212.527 471.89 236.864 514.331 210.404C556.772 183.944 541.587 159.614 584.016 133.162" stroke="#4A4A4A" stroke-opacity="0.35" stroke-width="0.634507" stroke-miterlimit="10"/>
<path d="M119.653 528.836C162.081 502.384 177.255 526.721 219.684 500.269C262.113 473.816 246.939 449.479 289.356 423.034C331.773 396.589 346.958 420.919 389.387 394.467C431.816 368.014 416.643 343.677 459.072 317.224C501.501 290.772 516.674 315.109 559.115 288.649C601.556 262.189 586.371 237.859 628.8 211.407" stroke="#4A4A4A" stroke-opacity="0.35" stroke-width="0.634507" stroke-miterlimit="10"/>
<path d="M106.382 502.533C148.81 476.08 163.984 500.418 206.413 473.965C248.842 447.513 233.668 423.175 276.085 396.731C318.502 370.286 333.687 394.615 376.116 368.163C418.545 341.71 403.372 317.373 445.801 290.921C488.23 264.468 503.403 288.806 545.844 262.345C588.285 235.885 573.1 211.556 615.529 185.103" stroke="#4A4A4A" stroke-opacity="0.35" stroke-width="0.634507" stroke-miterlimit="10"/>
<path d="M58.6026 427.521C101.032 401.068 116.205 425.406 158.634 398.953C201.063 372.501 185.889 348.163 228.306 321.719C270.723 295.274 285.908 319.603 328.337 293.151C370.766 266.698 355.593 242.361 398.022 215.909C440.451 189.456 455.624 213.794 498.065 187.334C540.506 160.873 525.321 136.544 567.75 110.091" stroke="#4A4A4A" stroke-opacity="0.35" stroke-width="0.634507" stroke-miterlimit="10"/>
<path d="M67.2819 438.422C109.711 411.97 124.884 436.307 167.313 409.854C209.742 383.402 194.569 359.065 236.985 332.62C279.402 306.175 294.588 330.505 337.016 304.052C379.445 277.6 364.272 253.263 406.701 226.81C449.13 200.358 464.303 224.695 506.745 198.235C549.186 171.775 534 147.445 576.429 120.993" stroke="#4A4A4A" stroke-opacity="0.35" stroke-width="0.634507" stroke-miterlimit="10"/>
<path d="M85.6118 464.898C128.041 438.446 143.214 462.783 185.643 436.331C228.072 409.878 212.899 385.541 255.315 359.096C297.732 332.651 312.917 356.981 355.346 330.529C397.775 304.076 382.602 279.739 425.031 253.287C467.46 226.834 482.633 251.171 525.074 224.711C567.516 198.251 552.33 173.922 594.759 147.469" stroke="#4A4A4A" stroke-opacity="0.35" stroke-width="0.634507" stroke-miterlimit="10"/>
<path d="M187.851 642.725C230.28 616.273 245.453 640.61 287.882 614.158C330.311 587.705 315.138 563.368 357.555 536.923C399.972 510.478 415.157 534.808 457.586 508.355C500.015 481.903 484.842 457.566 527.271 431.113C569.7 404.661 584.873 428.998 627.314 402.538C669.755 376.078 654.57 351.748 696.999 325.296" stroke="#4A4A4A" stroke-opacity="0.35" stroke-width="0.634507" stroke-miterlimit="10"/>
<path d="M174.581 616.422C217.01 589.97 232.183 614.307 274.612 587.854C317.041 561.402 301.868 537.065 344.285 510.62C386.702 484.175 401.887 508.505 444.316 482.052C486.745 455.6 471.572 431.262 514.001 404.81C556.43 378.358 571.603 402.695 614.044 376.235C656.485 349.775 641.3 325.445 683.729 298.993" stroke="#4A4A4A" stroke-opacity="0.35" stroke-width="0.634507" stroke-miterlimit="10"/>
<path d="M126.802 541.41C169.231 514.958 184.404 539.295 226.833 512.842C269.262 486.39 254.089 462.053 296.506 435.608C338.923 409.163 354.108 433.493 396.537 407.04C438.966 380.588 423.793 356.25 466.222 329.798C508.651 303.346 523.824 327.683 566.265 301.223C608.706 274.763 593.521 250.433 635.95 223.981" stroke="#4A4A4A" stroke-opacity="0.35" stroke-width="0.634507" stroke-miterlimit="10"/>
<path d="M168.984 603.125C211.413 576.673 226.586 601.01 269.015 574.557C311.444 548.105 296.271 523.768 338.688 497.323C381.104 470.878 396.29 495.208 438.719 468.755C481.148 442.303 465.974 417.966 508.403 391.513C550.832 365.061 566.006 389.398 608.447 362.938C650.888 336.478 635.703 312.148 678.131 285.696" stroke="#4A4A4A" stroke-opacity="0.35" stroke-width="0.634507" stroke-miterlimit="10"/>
<path d="M150.654 576.649C193.083 550.196 208.256 574.534 250.685 548.081C293.114 521.629 277.941 497.291 320.358 470.847C362.774 444.402 377.96 468.731 420.389 442.279C462.818 415.826 447.645 391.489 490.074 365.037C532.502 338.584 547.676 362.922 590.117 336.461C632.558 310.001 617.373 285.672 659.802 259.219" stroke="#4A4A4A" stroke-opacity="0.35" stroke-width="0.634507" stroke-miterlimit="10"/>
<path d="M195.438 654.894C237.867 628.442 253.04 652.779 295.469 626.327C337.898 599.874 322.725 575.537 365.142 549.092C407.558 522.647 422.744 546.977 465.173 520.524C507.602 494.072 492.429 469.735 534.858 443.282C577.286 416.83 592.46 441.167 634.901 414.707C677.342 388.247 662.157 363.917 704.586 337.465" stroke="#4A4A4A" stroke-opacity="0.35" stroke-width="0.634507" stroke-miterlimit="10"/>
<path d="M182.167 628.59C224.596 602.138 239.769 626.475 282.198 600.023C324.627 573.57 309.454 549.233 351.871 522.788C394.287 496.343 409.473 520.673 451.902 494.221C494.331 467.768 479.158 443.431 521.587 416.978C564.015 390.526 579.189 414.863 621.63 388.403C664.071 361.943 648.886 337.614 691.315 311.161" stroke="#4A4A4A" stroke-opacity="0.35" stroke-width="0.634507" stroke-miterlimit="10"/>
<path d="M134.388 553.578C176.817 527.126 191.99 551.463 234.419 525.011C276.848 498.558 261.675 474.221 304.092 447.776C346.509 421.331 361.694 445.661 404.123 419.209C446.552 392.756 431.379 368.419 473.808 341.967C516.237 315.514 531.41 339.851 573.851 313.391C616.292 286.931 601.107 262.602 643.536 236.149" stroke="#4A4A4A" stroke-opacity="0.35" stroke-width="0.634507" stroke-miterlimit="10"/>
<path d="M143.067 564.48C185.496 538.027 200.67 562.365 243.098 535.912C285.527 509.46 270.354 485.122 312.771 458.678C355.188 432.233 370.373 456.562 412.802 430.11C455.231 403.658 440.058 379.32 482.487 352.868C524.916 326.415 540.089 350.753 582.53 324.293C624.971 297.833 609.786 273.503 652.215 247.05" stroke="#4A4A4A" stroke-opacity="0.35" stroke-width="0.634507" stroke-miterlimit="10"/>
<path d="M161.397 590.956C203.826 564.504 218.999 588.841 261.428 562.389C303.857 535.936 288.684 511.599 331.101 485.154C373.518 458.709 388.703 483.039 431.132 456.586C473.561 430.134 458.388 405.797 500.817 379.344C543.246 352.892 558.419 377.229 600.86 350.769C643.301 324.309 628.116 299.979 670.545 273.527" stroke="#4A4A4A" stroke-opacity="0.35" stroke-width="0.634507" stroke-miterlimit="10"/>
</mask>
<g mask="url(#mask0_17_573)">
<rect x="51" y="231" width="312" height="185" fill="url(#paint0_linear_17_573)"/>
</g>
<defs>
<linearGradient id="paint0_linear_17_573" x1="346" y1="372.5" x2="158.5" y2="297" gradientUnits="userSpaceOnUse">
<stop/>
<stop offset="1" stop-opacity="0"/>
</linearGradient>
</defs>
</svg>
