<svg width="375" height="257" viewBox="0 0 375 257" fill="none" xmlns="http://www.w3.org/2000/svg">
<mask id="mask0_17_560" style="mask-type:alpha" maskUnits="userSpaceOnUse" x="-60" y="-267" width="564" height="464">
<path d="M494.485 102.594C454.306 72.8348 471.376 49.7882 431.197 20.029C391.018 -9.73015 373.948 13.3164 333.781 -16.4342C293.614 -46.1848 310.672 -69.2399 270.493 -98.9991C230.314 -128.758 213.244 -105.712 173.065 -135.471C132.887 -165.23 149.956 -188.277 109.766 -218.044C69.5756 -247.812 52.5173 -224.757 12.3385 -254.516" stroke="#4A4A4A" stroke-opacity="0.35" stroke-width="0.634507" stroke-miterlimit="10"/>
<path d="M474.888 124.592C434.709 94.8328 451.779 71.7862 411.6 42.027C371.421 12.2678 354.351 35.3144 314.184 5.56383C274.016 -24.1868 291.075 -47.2419 250.896 -77.0011C210.717 -106.76 193.647 -83.7136 153.468 -113.473C113.29 -143.232 130.359 -166.279 90.1689 -196.046C49.9785 -225.814 32.9202 -202.759 -7.25863 -232.518" stroke="#4A4A4A" stroke-opacity="0.35" stroke-width="0.634507" stroke-miterlimit="10"/>
<path d="M422.647 196.568C382.468 166.809 399.538 143.762 359.359 114.003C319.18 84.2436 302.11 107.29 261.943 77.5396C221.776 47.789 238.834 24.7338 198.655 -5.02532C158.476 -34.7845 141.406 -11.7379 101.227 -41.497C61.0486 -71.2562 78.1184 -94.3028 37.928 -124.071C-2.26239 -153.838 -19.3207 -130.783 -59.4995 -160.542" stroke="#4A4A4A" stroke-opacity="0.35" stroke-width="0.634507" stroke-miterlimit="10"/>
<path d="M464.573 134.679C424.394 104.92 441.464 81.8731 401.285 52.1139C361.106 22.3548 344.036 45.4013 303.869 15.6507C263.702 -14.0999 280.76 -37.155 240.581 -66.9142C200.402 -96.6733 183.333 -73.6267 143.154 -103.386C102.975 -133.145 120.045 -156.192 79.8543 -185.959C39.6639 -215.727 22.6056 -192.672 -17.5733 -222.431" stroke="#4A4A4A" stroke-opacity="0.35" stroke-width="0.634507" stroke-miterlimit="10"/>
<path d="M446.672 161.447C406.493 131.688 423.563 108.641 383.384 78.8821C343.205 49.1229 326.135 72.1695 285.968 42.4189C245.801 12.6683 262.859 -10.3868 222.68 -40.146C182.501 -69.9052 165.432 -46.8585 125.253 -76.6177C85.0739 -106.377 102.144 -129.423 61.9533 -159.191C21.7629 -188.959 4.70459 -165.904 -35.4743 -195.663" stroke="#4A4A4A" stroke-opacity="0.35" stroke-width="0.634507" stroke-miterlimit="10"/>
<path d="M503.02 91.0704C462.841 61.3113 479.911 38.2647 439.732 8.50552C399.553 -21.2536 382.483 1.79294 342.316 -27.9577C302.149 -57.7083 319.207 -80.7634 279.028 -110.523C238.849 -140.282 221.779 -117.235 181.601 -146.994C141.422 -176.753 158.492 -199.8 118.301 -229.568C78.1108 -259.336 61.0525 -236.28 20.8736 -266.04" stroke="#4A4A4A" stroke-opacity="0.35" stroke-width="0.634507" stroke-miterlimit="10"/>
<path d="M483.423 113.069C443.244 83.3102 460.314 60.2636 420.135 30.5045C379.956 0.745316 362.886 23.7919 322.719 -5.9587C282.552 -35.7093 299.61 -58.7645 259.431 -88.5236C219.252 -118.283 202.182 -95.2362 162.003 -124.995C121.825 -154.754 138.894 -177.801 98.704 -207.569C58.5136 -237.337 41.4553 -214.281 1.2764 -244.041" stroke="#4A4A4A" stroke-opacity="0.35" stroke-width="0.634507" stroke-miterlimit="10"/>
<path d="M431.182 185.045C391.003 155.286 408.073 132.239 367.894 102.48C327.715 72.721 310.645 95.7676 270.478 66.017C230.311 36.2664 247.369 13.2113 207.19 -16.5479C167.011 -46.3071 149.941 -23.2605 109.762 -53.0196C69.5836 -82.7788 86.6535 -105.825 46.4631 -135.593C6.27265 -165.361 -10.7856 -142.306 -50.9645 -172.065" stroke="#4A4A4A" stroke-opacity="0.35" stroke-width="0.634507" stroke-miterlimit="10"/>
<path d="M438.137 172.971C397.958 143.211 415.028 120.165 374.849 90.4056C334.67 60.6464 317.6 83.693 277.433 53.9424C237.266 24.1918 254.324 1.13667 214.145 -28.6225C173.966 -58.3817 156.896 -35.335 116.718 -65.0942C76.5387 -94.8534 93.6086 -117.9 53.4181 -147.668C13.2277 -177.435 -3.83057 -154.38 -44.0094 -184.139" stroke="#4A4A4A" stroke-opacity="0.35" stroke-width="0.634507" stroke-miterlimit="10"/>
<path d="M456.038 146.202C415.859 116.443 432.929 93.3966 392.75 63.6374C352.571 33.8783 335.501 56.9248 295.334 27.1742C255.167 -2.57636 272.225 -25.6315 232.046 -55.3907C191.867 -85.1498 174.797 -62.1032 134.619 -91.8624C94.4398 -121.622 111.51 -144.668 71.3192 -174.436C31.1288 -204.204 14.0705 -181.148 -26.1084 -210.908" stroke="#4A4A4A" stroke-opacity="0.35" stroke-width="0.634507" stroke-miterlimit="10"/>
</mask>
<g mask="url(#mask0_17_560)">
<rect x="209" width="166" height="125" fill="url(#paint0_linear_17_560)"/>
</g>
<defs>
<linearGradient id="paint0_linear_17_560" x1="360.5" y1="7" x2="270.5" y2="83.5" gradientUnits="userSpaceOnUse">
<stop/>
<stop offset="1" stop-opacity="0"/>
</linearGradient>
</defs>
</svg>
