<svg width="173" height="52" viewBox="0 0 173 52" fill="none" xmlns="http://www.w3.org/2000/svg">
<g clip-path="url(#clip0_3_28)">
<path d="M25.9952 0.0857544C11.682 0.0857544 0.0783081 11.6907 0.0783081 26.0059C0.0783081 40.3217 11.682 51.9257 25.9952 51.9257C40.3099 51.9257 51.9124 40.3217 51.9124 26.0059C51.9124 11.6917 40.3099 0.0869925 25.9949 0.0869925L25.9952 0.0857544ZM37.8805 37.47C37.4163 38.2315 36.4198 38.4729 35.6584 38.0055C29.5734 34.2881 21.9131 33.4462 12.8918 35.5077C12.0224 35.7058 11.1559 35.161 10.9578 34.2912C10.7588 33.4215 11.3013 32.5548 12.1728 32.3567C22.0453 30.1009 30.5136 31.0722 37.3451 35.2477C38.1064 35.715 38.3478 36.7086 37.8805 37.47ZM41.0527 30.4123C40.4678 31.3631 39.2237 31.6634 38.2736 31.0784C31.3071 26.7958 20.6879 25.5555 12.448 28.0571C11.3793 28.3799 10.2506 27.7776 9.92631 26.7107C9.60445 25.6419 10.207 24.5152 11.2738 24.1902C20.686 21.3339 32.3872 22.7175 40.3873 27.6343C41.3374 28.2193 41.6376 29.4636 41.0527 30.4126V30.4123ZM41.325 23.0629C32.9721 18.101 19.1909 17.6447 11.2159 20.0655C9.93529 20.454 8.581 19.7309 8.19291 18.4501C7.80482 17.1687 8.52715 15.8151 9.80871 15.4258C18.9635 12.6462 34.1822 13.1833 43.799 18.893C44.9534 19.5768 45.331 21.0647 44.647 22.2152C43.9662 23.3672 42.4744 23.747 41.3263 23.0629H41.325ZM70.5896 24.0138C66.1145 22.9466 65.3191 22.1975 65.3191 20.6236C65.3191 19.1366 66.718 18.1359 68.8008 18.1359C70.8186 18.1359 72.8178 18.8958 74.9161 20.4602C74.978 20.5075 75.0585 20.5264 75.1359 20.514C75.2163 20.5023 75.2844 20.4592 75.3308 20.3945L77.5158 17.3142C77.6055 17.1873 77.5808 17.0124 77.4601 16.9155C74.9625 14.9119 72.1525 13.9379 68.8658 13.9379C64.0348 13.9379 60.6583 16.8378 60.6583 20.987C60.6583 25.4364 63.5705 27.0119 68.6027 28.228C72.8828 29.2144 73.607 30.0409 73.607 31.5179C73.607 33.1553 72.1463 34.1736 69.7942 34.1736C67.1822 34.1736 65.0499 33.2915 62.6669 31.23C62.6081 31.1774 62.5276 31.1558 62.4533 31.1588C62.3729 31.165 62.3017 31.2022 62.2522 31.261L59.8011 34.1767C59.6989 34.3005 59.7113 34.48 59.8289 34.5853C62.6019 37.0615 66.0124 38.3677 69.6952 38.3677C74.9007 38.3677 78.2647 35.5231 78.2647 31.1186C78.274 27.4022 76.0488 25.3438 70.5989 24.0178L70.5896 24.0138ZM90.0436 19.6C87.7875 19.6 85.9368 20.4889 84.4079 22.3105V20.2602C84.4079 20.0983 84.2779 19.9665 84.117 19.9665H80.1092C79.9483 19.9665 79.8183 20.0983 79.8183 20.2602V43.0415C79.8183 43.2024 79.9483 43.3355 80.1092 43.3355H84.117C84.2779 43.3355 84.4079 43.2024 84.4079 43.0415V35.8512C85.9368 37.5629 87.7875 38.4017 90.0436 38.4017C94.2371 38.4017 98.4831 35.1734 98.4831 29.0018C98.4893 22.8289 94.2432 19.5997 90.0467 19.5997L90.0436 19.6ZM93.8223 29.0018C93.8223 32.1431 91.8881 34.3377 89.1151 34.3377C86.3762 34.3377 84.3089 32.0441 84.3089 29.0018C84.3089 25.9592 86.3762 23.6662 89.1151 23.6662C91.8417 23.6659 93.8223 25.9093 93.8223 29.0015V29.0018ZM109.361 19.6C103.961 19.6 99.7303 23.7588 99.7303 29.0689C99.7303 34.3222 103.933 38.4358 109.296 38.4358C114.715 38.4358 118.958 34.2912 118.958 29.0018C118.958 23.7303 114.743 19.6006 109.361 19.6006V19.6ZM109.361 34.3686C106.489 34.3686 104.323 32.0596 104.323 29.0002C104.323 25.927 106.415 23.6968 109.296 23.6968C112.187 23.6968 114.366 26.005 114.366 29.0674C114.366 32.14 112.261 34.3686 109.361 34.3686ZM130.49 19.9665H126.08V15.4579C126.08 15.2964 125.95 15.1645 125.789 15.1645H121.781C121.62 15.1645 121.487 15.2964 121.487 15.4579V19.9665H119.562C119.401 19.9665 119.271 20.0983 119.271 20.2602V23.7043C119.271 23.8659 119.401 23.998 119.562 23.998H121.487V32.9108C121.487 36.5105 123.279 38.3367 126.816 38.3367C128.252 38.3367 129.444 38.0396 130.567 37.4019C130.66 37.3524 130.716 37.2534 130.716 37.1481V33.8672C130.716 33.7681 130.663 33.6722 130.576 33.6196C130.49 33.5639 130.381 33.5608 130.292 33.6072C129.521 33.9941 128.775 34.1736 127.94 34.1736C126.655 34.1736 126.08 33.5886 126.08 32.2824V23.9996H130.49C130.651 23.9996 130.781 23.8677 130.781 23.7058V20.2621C130.787 20.1002 130.657 19.9683 130.493 19.9683L130.49 19.9665ZM145.852 19.9841V19.4304C145.852 17.8014 146.477 17.0749 147.876 17.0749C148.712 17.0749 149.384 17.2408 150.136 17.4915C150.228 17.5206 150.324 17.5061 150.399 17.4507C150.476 17.3953 150.519 17.3064 150.519 17.2123V13.8354C150.519 13.7064 150.439 13.5921 150.312 13.5541C149.52 13.3179 148.505 13.0755 146.982 13.0755C143.284 13.0755 141.325 15.1599 141.325 19.101V19.9491H139.4C139.239 19.9491 139.106 20.081 139.106 20.2426V23.7043C139.106 23.8659 139.239 23.998 139.4 23.998H141.325V37.7424C141.325 37.9065 141.458 38.0365 141.619 38.0365H145.623C145.787 38.0365 145.917 37.9065 145.917 37.7424V23.9989H149.659L155.391 37.7424C154.741 39.1848 154.1 39.4727 153.227 39.4727C152.522 39.4727 151.776 39.2622 151.018 38.8443C150.946 38.8072 150.86 38.801 150.785 38.8227C150.708 38.8505 150.643 38.9062 150.612 38.9805L149.254 41.9612C149.189 42.1036 149.244 42.2677 149.38 42.3419C150.798 43.1096 152.076 43.4377 153.657 43.4377C156.616 43.4377 158.253 42.0572 159.692 38.3491L166.643 20.3853C166.68 20.2949 166.668 20.1927 166.612 20.1126C166.56 20.033 166.47 19.985 166.374 19.985H162.202C162.075 19.985 161.964 20.0646 161.924 20.1819L157.65 32.3877L152.97 20.1739C152.927 20.0603 152.819 19.985 152.698 19.985H145.852V19.9841ZM136.945 19.9665H132.938C132.777 19.9665 132.644 20.0983 132.644 20.2602V37.7424C132.644 37.9065 132.777 38.0365 132.938 38.0365H136.945C137.106 38.0365 137.239 37.9065 137.239 37.7424V20.2614C137.239 20.0996 137.109 19.9677 136.945 19.9677V19.9665ZM134.965 12.0058C133.377 12.0058 132.09 13.291 132.09 14.8785C132.09 16.467 133.377 17.7537 134.965 17.7537C136.552 17.7537 137.837 16.467 137.837 14.8785C137.837 13.2913 136.549 12.0058 134.965 12.0058ZM170.066 25.5877C168.482 25.5877 167.247 24.314 167.247 22.7674C167.247 21.2207 168.497 19.9324 170.082 19.9324C171.666 19.9324 172.901 21.2058 172.901 22.7513C172.901 24.2979 171.651 25.5877 170.066 25.5877ZM170.082 20.2129C168.636 20.2129 167.544 21.3612 167.544 22.7674C167.544 24.1729 168.63 25.3058 170.066 25.3058C171.511 25.3058 172.604 24.1583 172.604 22.7513C172.604 21.3457 171.518 20.2129 170.082 20.2129ZM170.707 23.0413L171.505 24.158H170.831L170.113 23.1335H169.497V24.158H168.933V21.1978H170.252C170.942 21.1978 171.394 21.5497 171.394 22.1421C171.397 22.6274 171.115 22.924 170.71 23.0413H170.707ZM170.23 21.7057H169.497V22.642H170.23C170.595 22.642 170.815 22.4628 170.815 22.1734C170.815 21.8688 170.595 21.7057 170.23 21.7057Z" fill="#1ED760"/>
</g>
<defs>
<clipPath id="clip0_3_28">
<rect width="173" height="52" fill="white"/>
</clipPath>
</defs>
</svg>
