<svg width="36" height="36" viewBox="0 0 36 36" fill="none" xmlns="http://www.w3.org/2000/svg">
<path d="M15.6665 24.1709C17.4174 24.1709 19.0582 23.6473 20.4237 22.7527L25.247 27.5418C25.5663 27.8473 25.9738 28 26.4143 28C27.3283 28 28 27.2909 28 26.3964C28 25.9818 27.8568 25.5782 27.5485 25.2727L22.7583 20.5055C23.7493 19.1091 24.333 17.4182 24.333 15.5855C24.333 10.8618 20.4347 7 15.6665 7C10.9093 7 7 10.8618 7 15.5855C7 20.3091 10.8983 24.1709 15.6665 24.1709ZM15.6665 21.88C12.1757 21.88 9.31253 19.0436 9.31253 15.5855C9.31253 12.1273 12.1757 9.29091 15.6665 9.29091C19.1573 9.29091 22.0205 12.1273 22.0205 15.5855C22.0205 19.0436 19.1573 21.88 15.6665 21.88Z" fill="black" fill-opacity="0.5"/>
</svg>
